<?xml version="1.0" encoding="utf-8"?>
<!-- Generator: Adobe Illustrator 21.0.2, SVG Export Plug-In . SVG Version: 6.00 Build 0)  -->
<svg version="1.1" id="Layer_1" xmlns="http://www.w3.org/2000/svg" xmlns:xlink="http://www.w3.org/1999/xlink" x="0px" y="0px"
	 viewBox="0 0 210 142" style="enable-background:new 0 0 210 142;" xml:space="preserve">
<g>
	<g>
		<path d="M26.4,137.7c0-0.1-0.1-0.1-0.1-0.2c0,0,0-0.1,0-0.2c0,0.1,0,0.1-0.1,0.2c0,0.1-0.1,0.1-0.1,0.2l-0.9,1.7h2L26.4,137.7z
			 M26,136.8h0.6l2.1,4.1H28l-0.5-1H25l-0.5,1h-0.6L26,136.8z"/>
		<path d="M38.8,139.8c-0.2,0.3-0.3,0.6-0.7,0.8c-0.5,0.3-1.1,0.4-1.6,0.4c-1.7,0-2.5-1-2.5-2.2c0-1,0.5-1.4,0.8-1.6
			c0.2-0.1,0.7-0.5,1.7-0.5c0.3,0,1,0,1.5,0.4c0.4,0.3,0.6,0.6,0.7,0.8l-0.6,0.1c-0.1-0.2-0.2-0.3-0.4-0.5c-0.2-0.2-0.7-0.3-1.2-0.3
			c-1,0-1.9,0.5-1.9,1.6c0,0.4,0.1,0.8,0.4,1.2c0.3,0.3,0.7,0.5,1.5,0.5c0.6,0,1-0.2,1.3-0.4c0.2-0.2,0.4-0.4,0.4-0.5L38.8,139.8z"
			/>
		<path d="M41.3,138.9c0,0.3,0.1,0.7,0.4,1c0.4,0.4,1,0.6,1.6,0.6c1.5,0,1.9-1,1.9-1.6c0-1.1-0.9-1.7-2-1.6
			C42.3,137.3,41.3,137.7,41.3,138.9 M45.7,138.9c0,1.4-1.1,2.1-2.4,2.1c-0.6,0-1.2-0.1-1.7-0.5c-0.4-0.3-0.8-0.8-0.8-1.6
			c0-1.5,1.2-2.2,2.5-2.2C44.6,136.7,45.7,137.6,45.7,138.9"/>
		<path d="M48.5,136.8v2.4c0,0.5,0.1,0.8,0.4,1c0.2,0.1,0.5,0.3,1.1,0.3c0.4,0,0.7-0.1,1-0.2c0.5-0.2,0.5-0.7,0.5-1v-2.5h0.6v2.4
			c0,0.4,0,1-0.6,1.4c-0.3,0.2-0.7,0.4-1.5,0.4c-0.5,0-1.1-0.1-1.5-0.4c-0.6-0.4-0.6-0.9-0.6-1.4v-2.4H48.5z"/>
		<path d="M55.1,136.8l2.7,2.9c0.2,0.2,0.2,0.3,0.4,0.5c0-0.3,0-0.3,0-0.6v-2.8h0.6v4.1h-0.6l-2.9-3.1c-0.1-0.2-0.2-0.2-0.3-0.4
			c0,0.3,0,0.4,0,0.7v2.7h-0.5v-4.1H55.1z"/>
	</g>
	<polygon points="60.8,136.8 60.8,137.3 62.5,137.3 62.5,140.9 63.1,140.9 63.1,137.3 64.7,137.3 64.7,136.8 	"/>
	<g>
		<path d="M67.3,137.3v1.5h2c0.3,0,0.7,0,1-0.3c0.1-0.1,0.1-0.3,0.1-0.4c0-0.2,0-0.3-0.1-0.4c-0.2-0.3-0.5-0.3-0.7-0.3H67.3z
			 M66.8,136.8h2.8c0.4,0,0.8,0,1.1,0.3c0.1,0.1,0.4,0.4,0.4,0.9c0,1-0.8,1.1-1.1,1.2l1.5,1.7h-0.8l-1.4-1.6h-2v1.6h-0.6V136.8z"/>
		<path d="M73.6,136.8l1.4,1.8c0.1,0.1,0.1,0.2,0.2,0.3c0.1-0.1,0.1-0.1,0.2-0.2l1.4-1.8h0.7l-2.1,2.5v1.6h-0.6v-1.6l-2-2.5H73.6z"
			/>
		<path d="M87,140.3c-0.1,0.1-0.1,0.1-0.2,0.2c-0.3,0.2-0.9,0.5-1.5,0.5c-1.4,0-2.3-1-2.3-2.1c0-0.6,0.2-1,0.3-1.2
			c0.4-0.6,1.1-1,2.1-1c0.9,0,1.5,0.4,1.8,0.6c0.2,0.2,0.3,0.3,0.4,0.5l-0.6,0.2c-0.1-0.1-0.1-0.2-0.3-0.3c-0.3-0.3-0.8-0.4-1.3-0.4
			c-1,0-1.9,0.6-1.9,1.6c0,0.4,0.2,0.8,0.3,0.9c0.4,0.7,1.3,0.7,1.6,0.7c0.4,0,1-0.1,1.3-0.5c0.2-0.3,0.3-0.5,0.3-0.7h-1.8v-0.5h2.3
			v2.1H87V140.3z"/>
		<path d="M90.4,137.3v1.5h2c0.3,0,0.7,0,0.9-0.3c0.1-0.1,0.1-0.3,0.1-0.4c0-0.2,0-0.3-0.1-0.4c-0.2-0.3-0.5-0.3-0.7-0.3H90.4z
			 M89.8,136.8h2.8c0.4,0,0.8,0,1.1,0.3c0.1,0.1,0.4,0.4,0.4,0.9c0,1-0.8,1.1-1.1,1.2l1.5,1.7h-0.7l-1.4-1.6h-2v1.6h-0.6V136.8z"/>
		<path d="M96.8,138.9c0,0.3,0.1,0.7,0.4,1c0.4,0.4,1,0.6,1.6,0.6c1.5,0,1.9-1,1.9-1.6c0-1.1-0.9-1.7-2-1.6
			C97.7,137.3,96.8,137.7,96.8,138.9 M101.1,138.9c0,1.4-1.1,2.1-2.4,2.1c-0.6,0-1.2-0.1-1.7-0.5c-0.4-0.3-0.8-0.8-0.8-1.6
			c0-1.5,1.2-2.2,2.5-2.2C100.1,136.7,101.1,137.6,101.1,138.9"/>
		<path d="M103.8,136.8v2.4c0,0.5,0.1,0.8,0.4,1c0.2,0.1,0.5,0.3,1.1,0.3c0.4,0,0.7-0.1,1-0.2c0.5-0.2,0.5-0.7,0.5-1v-2.5h0.6v2.4
			c0,0.4,0,1-0.6,1.4c-0.3,0.2-0.7,0.4-1.4,0.4c-0.5,0-1.1-0.1-1.5-0.4c-0.6-0.4-0.6-0.9-0.6-1.4v-2.4H103.8z"/>
		<path d="M112.3,138.8c0.2,0,0.5,0,0.7-0.1c0.2-0.1,0.3-0.3,0.3-0.6c0-0.1,0-0.3-0.2-0.5c-0.2-0.2-0.6-0.2-0.9-0.2h-1.8v1.5H112.3z
			 M112.3,136.8c0.5,0,0.9,0.1,1.2,0.3c0.3,0.3,0.4,0.6,0.4,0.9c0,0.2-0.1,0.5-0.2,0.7c-0.4,0.5-1,0.5-1.4,0.5h-2v1.6h-0.6v-4.1
			H112.3z"/>
		<path d="M120.1,137.3v3.1h1.2c0.5,0,1.1,0,1.6-0.6c0.2-0.3,0.3-0.7,0.3-1c0-0.5-0.2-0.9-0.4-1.1c-0.4-0.4-0.8-0.4-1.2-0.4H120.1z
			 M119.6,136.8h2c0.5,0,1,0,1.6,0.5c0.3,0.3,0.7,0.8,0.7,1.6c0,0.7-0.3,1.2-0.6,1.5c-0.6,0.6-1.4,0.6-2,0.6h-1.6V136.8z"/>
	</g>
	<polygon points="125.9,136.8 125.9,140.9 129.8,140.9 129.8,140.4 126.5,140.4 126.5,139 129.6,139 129.6,138.5 126.5,138.5 
		126.5,137.3 129.7,137.3 129.7,136.8 	"/>
	<g>
		<path d="M135.3,136.8h0.6l-1.9,4.1h-0.6l-1.9-4.1h0.6l1.4,3c0.1,0.2,0.1,0.3,0.2,0.5c0-0.2,0.1-0.2,0.2-0.4L135.3,136.8z"/>
	</g>
	<polygon points="137.8,136.8 137.8,140.9 141.7,140.9 141.7,140.4 138.4,140.4 138.4,139 141.5,139 141.5,138.5 138.4,138.5 
		138.4,137.3 141.6,137.3 141.6,136.8 	"/>
	<polygon points="143.8,136.8 143.8,140.9 147.1,140.9 147.1,140.4 144.4,140.4 144.4,136.8 	"/>
	<g>
		<path d="M149.3,138.9c0,0.3,0.1,0.7,0.4,1c0.4,0.4,1,0.6,1.6,0.6c1.5,0,1.9-1,1.9-1.6c0-1.1-0.9-1.7-2-1.6
			C150.3,137.3,149.3,137.7,149.3,138.9 M153.7,138.9c0,1.4-1.1,2.1-2.4,2.1c-0.6,0-1.2-0.1-1.7-0.5c-0.4-0.3-0.8-0.8-0.8-1.6
			c0-1.5,1.2-2.2,2.5-2.2C152.6,136.7,153.7,137.6,153.7,138.9"/>
		<path d="M158.4,138.8c0.2,0,0.5,0,0.7-0.1c0.2-0.1,0.3-0.3,0.3-0.6c0-0.1,0-0.3-0.2-0.5c-0.2-0.2-0.6-0.2-0.9-0.2h-1.8v1.5H158.4z
			 M158.4,136.8c0.5,0,0.9,0.1,1.2,0.3c0.3,0.3,0.4,0.6,0.4,0.9c0,0.2-0.1,0.5-0.2,0.7c-0.3,0.5-0.9,0.5-1.4,0.5h-2v1.6h-0.6v-4.1
			H158.4z"/>
		<path d="M162,136.8h0.8l1.3,2.6c0.2,0.4,0.2,0.5,0.4,0.9c0.1-0.4,0.2-0.5,0.4-0.9l1.3-2.7h0.8v4.1h-0.5v-2.3c0-0.8,0-0.9,0-1.2
			c-0.1,0.3-0.1,0.4-0.3,0.7l-1.4,2.9h-0.5l-1.3-2.6c-0.2-0.5-0.3-0.6-0.4-0.9c0,0.3,0,0.4,0,1v2.5H162V136.8z"/>
	</g>
	<polygon points="169.3,136.8 169.3,140.9 173.1,140.9 173.1,140.4 169.8,140.4 169.8,139 172.9,139 172.9,138.5 169.8,138.5 
		169.8,137.3 173,137.3 173,136.8 	"/>
	<g>
		<path d="M175.8,136.8l2.7,2.9c0.2,0.2,0.2,0.3,0.4,0.5c0-0.3,0-0.3,0-0.6v-2.8h0.6v4.1H179l-2.9-3.1c-0.1-0.2-0.2-0.2-0.3-0.4
			c0,0.3,0,0.4,0,0.7v2.7h-0.5v-4.1H175.8z"/>
	</g>
	<polygon points="181.6,136.8 181.6,137.3 183.2,137.3 183.2,140.9 183.8,140.9 183.8,137.3 185.5,137.3 185.5,136.8 	"/>
	<g>
		<path d="M1.5,116.4v2h3.1c0.3,0,0.7,0,1-0.3c0.3-0.3,0.3-0.6,0.3-0.7c0-0.5-0.3-0.7-0.3-0.8c-0.3-0.2-0.7-0.2-1-0.2H1.5z M1.5,114
			v1.8h3c0.2,0,0.5,0,0.8-0.1c0.3-0.2,0.4-0.5,0.4-0.7c0-0.3-0.2-0.6-0.4-0.7C5,114,4.7,114,4.4,114H1.5z M0.7,113.3h3.7
			c0.6,0,1.4,0,1.9,0.6c0.2,0.3,0.3,0.7,0.3,0.9c0,0.6-0.3,0.9-0.5,1.1c-0.1,0-0.3,0.1-0.3,0.1c0.3,0.1,1.1,0.4,1.1,1.5
			c0,0.4-0.2,0.9-0.5,1.2c-0.5,0.4-1.3,0.4-1.9,0.4H0.7V113.3z"/>
		<path d="M12,114.6c0-0.1-0.1-0.2-0.1-0.3c0-0.1-0.1-0.2-0.1-0.2c0,0.1,0,0.2-0.1,0.2c0,0.1-0.1,0.2-0.1,0.3l-1.2,2.4h2.8L12,114.6
			z M11.4,113.3h0.9l3,5.8h-0.9l-0.7-1.4h-3.5l-0.7,1.4H8.5L11.4,113.3z"/>
		<path d="M18.1,113.3l3.9,4.1c0.3,0.3,0.3,0.4,0.6,0.7c0-0.4,0-0.5,0-0.9v-4h0.8v5.8h-0.8l-4.1-4.3c-0.2-0.2-0.3-0.3-0.4-0.5
			c0,0.4,0,0.5,0,1v3.9h-0.8v-5.8H18.1z"/>
		<path d="M31.3,118.3c-0.1,0.1-0.2,0.2-0.3,0.3c-0.4,0.3-1.2,0.6-2.2,0.6c-2,0-3.3-1.4-3.3-3c0-0.8,0.3-1.4,0.5-1.6
			c0.5-0.8,1.6-1.4,2.9-1.4c1.3,0,2.2,0.5,2.5,0.8c0.3,0.3,0.4,0.5,0.6,0.7l-0.8,0.2c-0.1-0.2-0.2-0.3-0.4-0.4
			c-0.5-0.4-1.2-0.6-1.8-0.6c-1.4,0-2.6,0.8-2.6,2.2c0,0.6,0.2,1.1,0.4,1.3c0.6,1,1.8,1.1,2.2,1.1c0.5,0,1.4-0.2,1.9-0.8
			c0.4-0.4,0.4-0.7,0.5-1h-2.5v-0.7H32v3h-0.7V118.3z"/>
	</g>
	<polygon points="34.8,113.3 35.6,113.3 35.6,116.4 39.7,113.3 40.9,113.3 38,115.5 41.1,119.1 40,119.1 37.4,116 35.6,117.3 
		35.6,119.1 34.8,119.1 	"/>
	<g>
		<path d="M43.1,116.2c0,0.4,0.1,1,0.5,1.5c0.5,0.6,1.4,0.8,2.2,0.8c2.1,0,2.6-1.3,2.6-2.3c0-1.5-1.2-2.4-2.8-2.3
			C44.4,113.9,43.1,114.5,43.1,116.2 M49.3,116.3c0,2-1.6,2.9-3.5,2.9c-0.8,0-1.7-0.2-2.4-0.6c-0.6-0.4-1.2-1.1-1.2-2.3
			c0-2.1,1.8-3.1,3.5-3.1C47.7,113.2,49.3,114.4,49.3,116.3"/>
	</g>
	<polygon points="51.3,113.3 52.1,113.3 52.1,116.4 56.3,113.3 57.5,113.3 54.6,115.5 57.6,119.1 56.5,119.1 53.9,116 52.1,117.3 
		52.1,119.1 51.3,119.1 	"/>
	<g>
		<path d="M67.1,114.6c0-0.1-0.1-0.2-0.1-0.3c0-0.1-0.1-0.2-0.1-0.2c0,0.1,0,0.2-0.1,0.2c0,0.1-0.1,0.2-0.1,0.3l-1.2,2.4h2.8
			L67.1,114.6z M66.5,113.3h0.9l3,5.8h-0.9l-0.7-1.4h-3.5l-0.7,1.4h-0.9L66.5,113.3z"/>
	</g>
	<polygon points="70.8,113.3 76.3,113.3 76.3,114 74,114 74,119.1 73.1,119.1 73.1,114 70.8,114 	"/>
	<g>
		<path d="M88.5,117.5c-0.2,0.4-0.4,0.8-1,1.1c-0.7,0.4-1.6,0.6-2.3,0.6c-2.3,0-3.5-1.3-3.5-3.1c0-1.4,0.7-2,1.1-2.3
			c0.2-0.2,0.9-0.7,2.4-0.7c0.4,0,1.4,0.1,2.2,0.5c0.6,0.4,0.9,0.9,1.1,1.1l-0.9,0.2c-0.1-0.2-0.3-0.5-0.6-0.7
			c-0.3-0.2-1-0.4-1.7-0.4c-1.4,0-2.6,0.6-2.6,2.3c0,0.6,0.2,1.2,0.6,1.6c0.4,0.4,1.1,0.7,2.1,0.7c0.9,0,1.5-0.2,1.8-0.5
			c0.3-0.2,0.5-0.5,0.6-0.7L88.5,117.5z"/>
	</g>
	<polygon points="90.5,113.3 91.4,113.3 91.4,115.7 95.8,115.7 95.8,113.3 96.6,113.3 96.6,119.1 95.8,119.1 95.8,116.4 91.4,116.4 
		91.4,119.1 90.5,119.1 	"/>
	<g>
		<path d="M102.4,114.6c0-0.1-0.1-0.2-0.1-0.3c0-0.1,0-0.2-0.1-0.2c0,0.1,0,0.2-0.1,0.2c0,0.1-0.1,0.2-0.1,0.3l-1.2,2.4h2.8
			L102.4,114.6z M101.8,113.3h0.9l3,5.8h-0.9l-0.7-1.4h-3.5l-0.7,1.4h-0.9L101.8,113.3z"/>
		<path d="M107.8,116.2c0,0.4,0.1,1,0.5,1.5c0.5,0.6,1.4,0.8,2.2,0.8c2.1,0,2.6-1.3,2.6-2.3c0-1.5-1.2-2.4-2.8-2.3
			C109.2,113.9,107.8,114.5,107.8,116.2 M114,116.3c0,2-1.6,2.9-3.5,2.9c-0.8,0-1.7-0.2-2.4-0.6c-0.6-0.4-1.2-1.1-1.2-2.3
			c0-2.1,1.8-3.1,3.5-3.1C112.5,113.2,114,114.4,114,116.3"/>
		<path d="M124.7,116.1c0.3,0,0.7,0,1-0.2c0.2-0.2,0.4-0.5,0.4-0.8c0-0.2,0-0.5-0.3-0.7c-0.3-0.3-0.8-0.3-1.3-0.3H122v2.1H124.7z
			 M124.7,113.3c0.8,0,1.3,0.1,1.8,0.5c0.4,0.4,0.6,0.9,0.6,1.3c0,0.4-0.1,0.7-0.3,1c-0.5,0.7-1.4,0.7-1.9,0.7H122v2.3h-0.8v-5.8
			H124.7z"/>
	</g>
	<polygon points="129.1,113.3 129.9,113.3 129.9,115.7 134.3,115.7 134.3,113.3 135.2,113.3 135.2,119.1 134.3,119.1 134.3,116.4 
		129.9,116.4 129.9,119.1 129.1,119.1 	"/>
	<g>
		<path d="M138.7,114v2.1h2.8c0.4,0,1,0,1.3-0.4c0.1-0.2,0.2-0.4,0.2-0.6c0-0.2-0.1-0.4-0.2-0.6c-0.3-0.4-0.7-0.4-1.1-0.4H138.7z
			 M137.9,113.3h3.9c0.5,0,1.1,0,1.6,0.5c0.2,0.2,0.5,0.5,0.5,1.2c0,1.4-1.2,1.6-1.5,1.6l2.1,2.4h-1.1l-2-2.3h-2.8v2.3h-0.8V113.3z"
			/>
		<path d="M149.5,114.6c0-0.1-0.1-0.2-0.1-0.3c0-0.1-0.1-0.2-0.1-0.2c0,0.1-0.1,0.2-0.1,0.2c0,0.1-0.1,0.2-0.1,0.3l-1.2,2.4h2.9
			L149.5,114.6z M148.9,113.3h0.9l3,5.8h-0.9l-0.7-1.4h-3.5l-0.7,1.4h-0.9L148.9,113.3z"/>
		<path d="M153.9,113.3l2,2.5c0.1,0.2,0.2,0.2,0.2,0.4c0.1-0.2,0.1-0.2,0.2-0.3l2-2.6h1.1l-2.9,3.5v2.2h-0.8v-2.2l-2.9-3.5H153.9z"
			/>
		<path d="M163,114.6c0-0.1-0.1-0.2-0.1-0.3c0-0.1,0-0.2-0.1-0.2c0,0.1,0,0.2-0.1,0.2c0,0.1-0.1,0.2-0.1,0.3l-1.2,2.4h2.8L163,114.6
			z M162.4,113.3h0.9l3,5.8h-0.9l-0.7-1.4h-3.5l-0.7,1.4h-0.9L162.4,113.3z"/>
		<path d="M173.9,114v2.1h2.8c0.4,0,1,0,1.3-0.4c0.1-0.2,0.2-0.4,0.2-0.6c0-0.2-0.1-0.4-0.2-0.6c-0.3-0.4-0.7-0.4-1.1-0.4H173.9z
			 M173.1,113.3h3.9c0.5,0,1.1,0,1.6,0.5c0.2,0.2,0.5,0.5,0.5,1.2c0,1.4-1.2,1.6-1.6,1.6l2.1,2.4h-1.1l-2-2.3h-2.8v2.3h-0.8V113.3z"
			/>
	</g>
	<rect x="182.2" y="113.3" width="0.8" height="5.8"/>
	<g>
		<path d="M190.9,113.3h0.9l-2.7,5.8h-0.8l-2.8-5.8h0.9l2,4.3c0.1,0.3,0.2,0.4,0.3,0.7c0.1-0.3,0.1-0.4,0.2-0.6L190.9,113.3z"/>
	</g>
	<polygon points="194.3,113.3 199.6,113.3 199.6,114.1 195.1,114.1 195.1,115.8 199.5,115.8 199.5,116.5 195.1,116.5 195.1,118.4 
		199.8,118.4 199.8,119.1 194.3,119.1 	"/>
	<g>
		<path d="M203.3,114v2.1h2.8c0.5,0,1,0,1.3-0.4c0.1-0.2,0.2-0.4,0.2-0.6c0-0.2-0.1-0.4-0.2-0.6c-0.3-0.4-0.7-0.4-1.1-0.4H203.3z
			 M202.5,113.3h3.9c0.5,0,1.1,0,1.6,0.5c0.2,0.2,0.5,0.5,0.5,1.2c0,1.4-1.2,1.6-1.5,1.6l2.1,2.4H208l-2-2.3h-2.8v2.3h-0.8V113.3z"
			/>
		<path d="M31.7,98.4h2.4c0.5,0,0.9,0,1.2,0.3c0.1,0.1,0.2,0.3,0.2,0.6c0,0.3-0.1,0.5-0.4,0.7c-0.3,0.2-0.6,0.2-0.9,0.2h-2.5V98.4z
			 M34.2,97.3h-3.7v6.1h1.2v-2.3h2.6c0.6,0,1.5,0,2.1-0.8c0.2-0.3,0.3-0.7,0.3-1.1c0-0.6-0.2-1.1-0.6-1.4
			C35.7,97.5,35.1,97.3,34.2,97.3"/>
		<path d="M44.6,99.2c0,0.2-0.1,0.4-0.2,0.5c-0.3,0.4-0.8,0.4-1.2,0.4h-2.7v-1.7h3c0.3,0,0.7,0,0.9,0.3C44.5,98.8,44.6,99,44.6,99.2
			 M45.8,99.2c0-0.8-0.4-1.2-0.6-1.4c-0.5-0.5-1.2-0.5-1.7-0.5h-4.1v6.1h1.2v-2.3h2.5l1.9,2.3h1.6l-2.2-2.5
			C45.3,100.7,45.8,100.1,45.8,99.2"/>
	</g>
	<rect x="49.2" y="97.3" width="1.2" height="6.1"/>
	<g>
		<path d="M56.8,101.8c0,0,0,0.1-0.1,0.1c0-0.1-0.1-0.1-0.1-0.2l-2.1-4.4h-1.3l2.9,6.1h1.1l2.9-6.1h-1.3L56.8,101.8z"/>
		<path d="M64.6,98.8L64.6,98.8c0-0.1,0-0.1,0-0.1C64.6,98.8,64.6,98.8,64.6,98.8l1.2,2.1h-2.3L64.6,98.8z M65.2,97.3h-1.1l-3.2,6.1
			h1.3l0.7-1.4h3.3l0.7,1.4h1.3l-3.1-6L65.2,97.3z"/>
	</g>
	<polygon points="69.3,98.4 71.6,98.4 71.6,103.4 72.8,103.4 72.8,98.4 75.2,98.4 75.2,97.3 69.3,97.3 	"/>
	<polygon points="79,100.8 83.4,100.8 83.4,99.7 79,99.7 79,98.4 83.5,98.4 83.5,97.3 77.8,97.3 77.8,103.4 83.7,103.4 83.7,102.4 
		79,102.4 	"/>
	<g>
		<path d="M98.5,99.2c0,0.2-0.1,0.4-0.2,0.5c-0.3,0.4-0.8,0.4-1.2,0.4h-2.7v-1.7h3c0.4,0,0.7,0,0.9,0.3C98.5,98.8,98.5,99,98.5,99.2
			 M99.7,99.2c0-0.8-0.4-1.2-0.6-1.4c-0.5-0.5-1.2-0.5-1.7-0.5h-4.1v6.1h1.2v-2.3H97l2,2.3h1.6l-2.2-2.5
			C99.3,100.7,99.7,100.1,99.7,99.2"/>
	</g>
	<polygon points="104.5,100.8 108.9,100.8 108.9,99.7 104.5,99.7 104.5,98.4 109,98.4 109,97.3 103.3,97.3 103.3,103.4 109.2,103.4 
		109.2,102.4 104.5,102.4 	"/>
	<g>
		<path d="M114.1,98.4c0.3-0.2,0.9-0.2,1.3-0.2c0.7,0,1.3,0.1,1.7,0.5c0.1,0.1,0.2,0.1,0.3,0.2l0.1,0.1l1.1-0.4l-0.1-0.2
			c-0.2-0.3-0.3-0.4-0.6-0.6c-0.6-0.4-1.4-0.6-2.4-0.6c-1.8,0-2.9,0.7-2.9,1.9c0,0.4,0.2,0.8,0.5,1.1c0.5,0.4,1,0.5,2.5,0.6
			c1.2,0.1,1.9,0.2,1.9,0.8c0,0.6-0.7,1-1.8,1c-0.9,0-1.5-0.2-2.1-0.5c-0.2-0.1-0.3-0.2-0.4-0.3l-0.1-0.1L112,102l0.1,0.2
			c0.2,0.2,0.6,0.9,1.9,1.2c0.4,0.1,1,0.2,1.5,0.2c1.3,0,2.2-0.3,2.7-1c0.2-0.3,0.3-0.7,0.3-1.1c0-1.2-0.9-1.5-1.5-1.7
			c-0.3-0.1-0.5-0.1-0.8-0.1c-0.3,0-0.5,0-0.8-0.1c-0.3,0-0.5,0-0.8-0.1c-0.5-0.1-0.8-0.1-0.9-0.3c-0.1-0.1-0.1-0.2-0.1-0.3
			C113.7,98.8,113.8,98.6,114.1,98.4"/>
	</g>
	<rect x="121.9" y="97.3" width="1.2" height="6.1"/>
	<g>
		<path d="M129.4,102.4h-1.5v-4h1.9c0.5,0,1.1,0,1.6,0.5c0.2,0.2,0.5,0.7,0.5,1.5c0,0.4-0.1,0.9-0.4,1.3
			C130.9,102.3,130.2,102.4,129.4,102.4 M132,98c-0.8-0.7-1.7-0.7-2.3-0.7h-3.1v6.1h2.5c0.9,0,2.2,0,3-0.9c0.3-0.3,0.9-1.1,0.9-2.2
			C133.1,99,132.4,98.3,132,98"/>
	</g>
	<polygon points="136.9,100.8 141.2,100.8 141.2,99.7 136.9,99.7 136.9,98.4 141.4,98.4 141.4,97.3 135.7,97.3 135.7,103.4 
		141.6,103.4 141.6,102.4 136.9,102.4 	"/>
	<g>
		<path d="M150.1,101.5L150.1,101.5c0,0.1,0,0.2,0,0.3c-0.1-0.1-0.1-0.2-0.3-0.3l-4-4.2h-1.1v6.1h1.1v-4c0-0.2,0-0.3,0-0.5
			c0,0,0.1,0.1,0.1,0.1l4.1,4.3l0.1,0.1h1.1v-6.1h-1.1V101.5z"/>
		<path d="M160,101.4c0,0.1-0.2,0.4-0.5,0.6c-0.2,0.2-0.7,0.5-1.7,0.5c-1.1,0-1.7-0.4-2-0.7c-0.4-0.4-0.5-0.9-0.5-1.5
			c0-1.9,1.9-2.1,2.5-2.1c0.7,0,1.3,0.2,1.6,0.4c0.3,0.2,0.4,0.4,0.6,0.7l0.1,0.1l1.3-0.3l-0.1-0.2c-0.2-0.3-0.5-0.8-1.1-1.2
			c-0.8-0.5-1.9-0.6-2.3-0.6c-1.6,0-2.3,0.6-2.5,0.8c-0.8,0.6-1.1,1.4-1.1,2.4c0,2,1.4,3.3,3.7,3.3c0.5,0,1.6-0.1,2.4-0.6
			c0.6-0.4,0.9-0.8,1.1-1.2l0.1-0.2l-1.3-0.3L160,101.4z"/>
	</g>
	<polygon points="165.2,100.8 169.6,100.8 169.6,99.7 165.2,99.7 165.2,98.4 169.7,98.4 169.7,97.3 164,97.3 164,103.4 169.9,103.4 
		169.9,102.4 165.2,102.4 	"/>
	<g>
		<path d="M177.4,99.8c-0.3-0.1-0.5-0.1-0.8-0.1c-0.3,0-0.5,0-0.8-0.1c-0.3,0-0.5,0-0.8-0.1c-0.5-0.1-0.8-0.1-0.9-0.3
			c-0.1-0.1-0.1-0.2-0.1-0.3c0-0.2,0.1-0.4,0.4-0.6c0.3-0.2,0.9-0.2,1.3-0.2c0.7,0,1.3,0.1,1.7,0.5c0.1,0.1,0.2,0.1,0.3,0.2l0.1,0.1
			l1.1-0.4l-0.1-0.2c-0.2-0.3-0.3-0.4-0.6-0.6c-0.6-0.4-1.4-0.6-2.4-0.6c-1.8,0-2.9,0.7-2.9,1.9c0,0.4,0.2,0.8,0.5,1.1
			c0.5,0.4,1,0.5,2.5,0.6c1.2,0.1,1.9,0.2,1.9,0.8c0,0.6-0.7,1-1.8,1c-0.9,0-1.5-0.2-2.1-0.5c-0.2-0.1-0.3-0.2-0.4-0.3l-0.1-0.1
			l-1.1,0.5l0.1,0.2c0.2,0.3,0.6,0.9,1.9,1.2c0.4,0.1,1,0.2,1.5,0.2c1.3,0,2.2-0.3,2.7-1c0.2-0.3,0.3-0.7,0.3-1.1
			C178.9,100.4,178,100,177.4,99.8"/>
		<path d="M15.5,87H9.9v-0.8h1.6v-14H10v-0.8h10c2.1,0,5,0,5,0l0,0l0.6,4.9h-0.7l-0.1-0.2c-0.9-3-1.5-3.9-4.8-3.9h-5.9V79h3.4
			c2.9,0,3.8-0.3,3.8-2.1v-0.3h0.7v5.6h-0.7v-0.3c0-1.3-0.8-2-3.8-2h-3.4v6.4h1.4V87z"/>
		<path d="M34.9,74.6c-3.9,0-6.1,2.2-6.1,6c0,3.8,2.2,5.9,6.1,5.9c4,0,6.1-2.1,6.1-5.9C41.1,76.8,38.8,74.6,34.9,74.6 M34.9,87.3
			c-5.7,0-8.8-3.4-8.8-6.7c0-4.2,4.5-6.8,8.8-6.8c5.7,0,8.8,3.5,8.8,6.8C43.7,85,39.2,87.3,34.9,87.3"/>
		<path d="M52.8,87.3c-3.2,0-7-1.1-7-6.6v-5.9h-1.3v-0.8h5.2v0.8h-1.4v5.9c0,5,2.9,5.8,4.6,5.8c2.7,0,5.5-1.5,5.5-5.8v-5.9h-1.3
			v-0.8h3.2v0.8H59v5.9C59,85.6,55.7,87.3,52.8,87.3"/>
		<path d="M65.1,80.5h4.6c2.2,0,3.3-0.9,3.3-2.8c0-1.9-1-2.8-3.2-2.8h-4.7V80.5z M69.9,81.3h-4.8v5h1.2V87h-5v-0.8h1.5V74.9h-1.5
			v-0.8h8.5c1.5,0,5.9,0,5.9,3.6c0,1.6-0.9,2.7-2.6,3.3C73,81,72.1,81.3,69.9,81.3"/>
		<path d="M101,72.8l0.3,3.8l-0.7,0l-0.2-0.6c-1-2.9-3-4.1-6.2-4.1c-3.1,0-5,0.9-5,2.4c0,1.6,2.6,2.3,5.4,3c3.4,0.9,7.3,1.8,7.3,5.1
			c0,3.4-2.6,5.1-7.7,5.1c0,0-3.8-0.1-6.7-1.2l-0.9-4.6h0.6l0.3,0.7c1,2.6,3.7,4.3,6.6,4.3c2.2,0,5.9-0.4,5.9-3.1
			c0-1.9-2.8-2.6-5.7-3.3c-3.4-0.8-7-1.7-7-4.7c0-2.8,2.5-4.4,6.8-4.4c1.3,0,2.1,0.2,3.4,0.5C97.7,71.5,99.8,72.2,101,72.8"/>
		<path d="M117.3,87.1L117.3,87.1c-0.1,0-2.3-0.1-3.5-0.1h-9.6v-0.8h1.4V74.9h-1.4v-0.8h9.3c1.2,0,2.4,0,2.7-0.1l0.7-0.1l0.4,3.6
			l-0.6,0l-0.1-0.2c-0.8-2.4-1.9-2.5-3.2-2.5H108v5h3.1c2.2,0,3-0.3,3-1.9v-0.3h0.7v5h-0.7v-0.3c0-1.2-0.7-1.7-3-1.7H108v5.6h5.9
			c2.1,0,2.6-0.7,3.4-2.4l0.1-0.2h0.7L117.3,87.1z"/>
	</g>
	<path d="M123.4,82h7.3l-3.6-6.6L123.4,82z M131.7,87v-0.8h1.3l-1.9-3.5h-8.1l-2,3.5h1.3V87H119v-0.8h1.1l6.4-11.4h-1.1v-0.8h3.5
		l0.1,0.1l6.6,12h1.3V87L131.7,87z"/>
	<g>
		<path d="M161.2,73.8c-4.3,0-8.8,2.5-8.8,6.8c0,3.2,3.1,6.7,8.8,6.7c4.3,0,8.8-2.3,8.8-6.7C169.9,77.3,166.8,73.8,161.2,73.8
			 M161.2,86.5c-3.9,0-6.1-2.1-6.1-5.9c0-3.8,2.2-6,6.1-6c3.9,0,6.1,2.2,6.1,6C167.3,84.4,165.1,86.5,161.2,86.5"/>
	</g>
	<polygon points="171,74.1 171,74.9 172,74.9 172.6,75.4 172.6,86.3 171.1,86.3 171.1,87 174.6,87 174.6,86.3 173.2,86.3 173.2,76 
		185.4,87.5 185.6,87.6 185.6,74.9 186.7,74.9 186.7,74.1 183.5,74.1 183.5,74.9 184.9,74.9 184.9,83.8 174.7,74.2 174.6,74.1 	"/>
	<g>
		<path d="M77.2,86.6c-2-0.1-2.2-0.8-2.7-1.8l-1.8-3.9h-2.6l3.3,6.4h3.8L77.2,86.6z"/>
		<path d="M149.8,75.5l0.3,3.1l-0.6,0l-0.2-0.5c-0.8-2.4-2.4-3.4-5-3.4c-2.6,0-4.1,0.7-4.1,1.9c0,1.3,2.1,1.9,4.4,2.4
			c2.8,0.7,5.9,1.5,5.9,4.1c0,2.8-2.1,4.2-6.3,4.2c0,0-3.1-0.1-5.5-1l-0.7-3.7h0.5l0.2,0.6c0.9,2.1,3,3.5,5.4,3.5
			c1.8,0,4.8-0.3,4.8-2.5c0-1.6-2.2-2.1-4.6-2.7c-2.8-0.7-5.7-1.4-5.7-3.9c0-2.3,2-3.6,5.6-3.6c1.1,0,1.7,0.1,2.8,0.4
			C147.1,74.4,148.9,75,149.8,75.5"/>
		<path d="M199.9,75.5l0.3,3.1l-0.6,0l-0.2-0.5c-0.8-2.4-2.5-3.4-5.1-3.4c-2.6,0-4.1,0.7-4.1,1.9c0,1.3,2.1,1.9,4.4,2.4
			c2.8,0.7,5.9,1.5,5.9,4.1c0,2.8-2.1,4.2-6.3,4.2c0,0-3.1-0.1-5.5-1l-0.7-3.7h0.5l0.2,0.6c0.9,2.1,3,3.5,5.4,3.5
			c1.8,0,4.8-0.3,4.8-2.5c0-1.6-2.3-2.1-4.6-2.7c-2.8-0.7-5.7-1.4-5.7-3.9c0-2.3,2-3.6,5.6-3.6c1.1,0,1.7,0.1,2.8,0.4
			C197.1,74.4,198.9,75,199.9,75.5"/>
		<path d="M125.7,36.8c-1.1,0.5-1.8,1.3-1.5,2.6C125.5,39,125.8,38,125.7,36.8"/>
		<path d="M121.3,37.6c0.2,1.2,0.8,2,2.2,2C123.4,38.3,122.5,37.8,121.3,37.6"/>
		<path d="M123.5,43.3c-0.1-1.4-1-1.9-2.2-2C121.4,42.4,122,43.2,123.5,43.3"/>
		<path d="M119.5,24.9c-1.2,0.1-2.1,0.7-2.2,2C118.6,26.9,119.3,26.1,119.5,24.9"/>
		<path d="M114.1,23.9c0.2,1.2,0.9,2,2.2,2C116.2,24.6,115.3,24,114.1,23.9"/>
		<path d="M113.8,19.6c1.4,0,2-0.9,2.2-2C114.9,17.7,114,18.3,113.8,19.6"/>
		<path d="M114.9,14.5c-1.1,0.5-1.8,1.3-1.5,2.6C114.7,16.7,115.1,15.7,114.9,14.5"/>
		<path d="M111,15.5c0,1.2,0.6,2.1,1.9,2.3C112.9,16.4,112.1,15.8,111,15.5"/>
		<path d="M110.5,12.2c1.4,0,2-0.9,2.2-2C111.5,10.2,110.6,10.8,110.5,12.2"/>
		<path d="M111.6,7.3c-1,0.6-1.6,1.5-1.2,2.8C111.7,9.5,111.9,8.5,111.6,7.3"/>
		<path d="M110.1,11.1c0-1.4-0.8-2.1-1.9-2.3C108.2,9.9,108.7,10.9,110.1,11.1"/>
		<path d="M109.3,13.1c-0.1-1.4-1.1-1.9-2.2-2C107.3,12.2,107.9,13.1,109.3,13.1"/>
		<path d="M105.6,15.8c0.4-0.3,4.7-2.8,4.7-2.8c0,0,0,0,0-0.1l-0.2-1.5h-0.1c0,0,0.1,0.6,0,0.9c0,0.3-0.1,0.4-0.3,0.5l-4.8,2.5
			c0,0.4,0,0.7,0,1.1C105.2,16.3,105.3,16,105.6,15.8"/>
		<path d="M104.6,2.3c-0.2-1.4-1.1-1.9-2.2-2C102.5,1.4,103.2,2.2,104.6,2.3"/>
		<path d="M104.5,4.5c-0.2-1.4-1.1-1.9-2.2-2C102.5,3.7,103.1,4.5,104.5,4.5"/>
		<path d="M104.5,6.8c-0.1-1.4-1.1-1.9-2.2-2C102.5,5.9,103.1,6.7,104.5,6.8"/>
		<path d="M104.5,9c-0.2-1.4-1.1-1.9-2.2-2C102.4,8.1,103.1,9,104.5,9"/>
		<path d="M104.4,11.3c-0.2-1.4-1.1-1.9-2.2-2C102.4,10.4,103,11.2,104.4,11.3"/>
		<path d="M104.4,13.5c-0.1-1.4-1.1-1.9-2.2-2C102.4,12.6,103,13.5,104.4,13.5"/>
		<path d="M101.4,8.4c-1.1,0.4-1.9,1.1-1.7,2.5C101,10.5,101.5,9.6,101.4,8.4"/>
		<path d="M99.7,12.5c1.4,0,2-0.9,2.2-2C100.8,10.6,99.9,11.1,99.7,12.5"/>
		<path d="M99.2,11.1c0.2-1.4-0.5-2.1-1.7-2.5C97.4,9.8,97.8,10.8,99.2,11.1"/>
		<path d="M98.9,12.7c-0.2-1.4-1.1-1.9-2.2-2C96.9,11.8,97.5,12.7,98.9,12.7"/>
		<path d="M102.2,19c-1.2,0.1-2.1,0.7-2.2,2C101.3,21,102,20.2,102.2,19"/>
		<path d="M98.3,20.2c1.4,0,2-0.9,2.2-2C99.4,18.3,98.5,18.8,98.3,20.2"/>
		<path d="M103.8,19.8c-1.2,0.1-2.1,0.7-2.2,2C103,21.9,103.6,21,103.8,19.8"/>
		<path d="M100.9,17.5c1.4,0,2-0.9,2.2-2C101.9,15.6,101,16.2,100.9,17.5"/>
		<path d="M99.3,16.6c1.4,0,2-0.9,2.2-2C100.4,14.7,99.5,15.2,99.3,16.6"/>
		<path d="M97.7,15.7c1.4,0,2-0.9,2.2-2C98.8,13.8,97.9,14.3,97.7,15.7"/>
		<path d="M98.9,17.3c-1.2,0.1-2.1,0.7-2.2,2C98,19.3,98.7,18.4,98.9,17.3"/>
		<path d="M96.2,17.1c0.2-1.4-0.6-2.1-1.7-2.5C94.5,15.8,94.9,16.8,96.2,17.1"/>
		<path d="M95.8,19.2c-0.1-1.4-1.1-1.9-2.2-2C93.8,18.4,94.4,19.2,95.8,19.2"/>
		<path d="M97,26.3c-1.2,0.1-2.1,0.7-2.2,2C96.1,28.3,96.8,27.4,97,26.3"/>
		<path d="M93.1,27.4c1.4,0,2-0.9,2.2-2C94.2,25.5,93.3,26,93.1,27.4"/>
		<path d="M98.6,27.1c-1.2,0.1-2.1,0.7-2.2,2C97.8,29.1,98.4,28.3,98.6,27.1"/>
		<path d="M100.3,28c-1.2,0.1-2.1,0.7-2.2,2C99.4,30,100.1,29.1,100.3,28"/>
		<path d="M101.9,28.8c-1.2,0.1-2.1,0.7-2.2,2C101.1,30.8,101.7,30,101.9,28.8"/>
		<path d="M103.6,29.7c-1.2,0.1-2.1,0.7-2.2,2C102.7,31.7,103.4,30.8,103.6,29.7"/>
		<path d="M101.2,26.3c1.4,0,2-0.9,2.2-2C102.3,24.4,101.4,24.9,101.2,26.3"/>
		<path d="M99.6,25.4c1.4,0,2-0.9,2.2-2C100.7,23.4,99.8,24,99.6,25.4"/>
		<path d="M98,24.5c1.4,0,2-0.9,2.2-2C99.1,22.5,98.2,23.1,98,24.5"/>
		<path d="M96.5,23.5c1.4,0,2-0.9,2.2-2C97.5,21.6,96.6,22.1,96.5,23.5"/>
		<path d="M94.9,22.6c1.4,0,2-0.9,2.2-2C95.9,20.7,95,21.2,94.9,22.6"/>
		<path d="M95.3,23.3c-1.2,0.1-2.1,0.7-2.2,2C94.5,25.3,95.1,24.5,95.3,23.3"/>
		<path d="M92.8,24.2c0.3-1.4-0.3-2.2-1.4-2.7C91.2,22.6,91.5,23.7,92.8,24.2"/>
		<path d="M92.5,26c-0.2-1.4-1.1-1.9-2.2-2C90.4,25.1,91.1,25.9,92.5,26"/>
		<path d="M92.1,28c-0.2-1.4-1.1-1.9-2.2-2C90.1,27.1,90.8,28,92.1,28"/>
		<path d="M96,33.7c1.4,0,2-0.9,2.2-2C97.1,31.8,96.2,32.3,96,33.7"/>
		<path d="M96,36.9c1.4,0,2-0.9,2.2-2C97.1,34.9,96.2,35.5,96,36.9"/>
		<path d="M94.4,32.8c1.4,0,2-0.9,2.2-2C95.5,30.8,94.6,31.4,94.4,32.8"/>
		<path d="M92.9,31.8c1.4,0,2-0.9,2.2-2C93.9,29.9,93,30.5,92.9,31.8"/>
		<path d="M91.3,30.9c1.4,0,2-0.9,2.2-2C92.4,29,91.5,29.5,91.3,30.9"/>
		<path d="M123.8,39.6c0,0,0.2,2.3,0.1,3.2c-0.1,1-0.2,1.4-1,1.9l-17.2,8.9c0-1.7-0.1-3.6-0.1-5.7l0-0.6c0-1.2,0.3-1.8,1.7-2.6
			c1.2-0.8,13.9-8.2,13.9-8.2c0,0,0.1-0.1,0.1-0.2l-0.6-4.5h-0.2c0,0,0.2,1.9,0.1,2.6c-0.1,0.9-0.2,1.2-0.8,1.6l-14.2,7.3
			c0-2.2-0.1-4.5-0.1-6.8l0-0.6c0-0.7,0.3-1.2,1.2-1.7c0.9-0.6,10.4-6.1,10.4-6.1c0,0,0.1,0,0-0.1l-0.4-3.4h-0.1c0,0,0.1,1.4,0.1,2
			c0,0.6-0.1,0.9-0.6,1.2l-10.6,5.4c0-2.6-0.1-5.3-0.1-7.9c0.1-0.4,0.3-0.8,0.9-1.2c0.6-0.4,7.4-4.4,7.4-4.4c0,0,0,0,0-0.1l-0.3-2.4
			h-0.1c0,0,0.1,1,0.1,1.4c0,0.5-0.1,0.6-0.4,0.9l-7.6,3.9c0-2.4-0.1-4.8-0.1-7c0-0.4,0-0.7,0-1.1c-0.2-8.7-0.3-15.1-0.3-15.1
			c0,0,0-0.1-0.1-0.1c0,0-0.1,0-0.1,0.1c0,0-0.1,6.4-0.3,15.1c0,0.2,0,0.4,0,0.5c0-0.2,0-0.4,0-0.5l-4.7-2.4
			c-0.2-0.1-0.3-0.2-0.3-0.5c0-0.3,0-0.9,0-0.9h-0.1L99.2,13c0,0,0,0,0,0.1c0,0,4.3,2.5,4.7,2.8c0.3,0.2,0.4,0.4,0.5,0.6
			c0,2.2-0.1,4.6-0.1,7.1l-7.5-3.9c-0.4-0.2-0.4-0.4-0.4-0.9c0-0.4,0.1-1.4,0.1-1.4h-0.1l-0.3,2.4c0,0.1,0,0.1,0,0.1
			c0,0,6.8,4,7.4,4.4c0.5,0.3,0.8,0.8,0.8,1.1c0,2.6-0.1,5.3-0.1,8l-10.6-5.4c-0.5-0.3-0.6-0.6-0.6-1.2c0-0.6,0.1-2,0.1-2h-0.1
			l-0.4,3.4c0,0.1,0,0.1,0.1,0.1c0,0,9.5,5.5,10.4,6.1c0.9,0.6,1.2,1,1.2,1.8l0,0.7c0,2.3-0.1,4.5-0.1,6.7l-14.2-7.3
			c-0.7-0.4-0.8-0.7-0.8-1.6c-0.1-0.8,0.1-2.6,0.1-2.6h-0.2l-0.6,4.5c0,0.1,0,0.1,0.1,0.2c0,0,12.7,7.4,13.9,8.2
			c1.4,0.9,1.7,1.5,1.7,2.6v0c0,2.3-0.1,4.4-0.1,6.3l-17.2-8.9c-0.8-0.5-0.9-0.9-1-1.9c-0.1-0.9,0.1-3.2,0.1-3.2h-0.2l-0.7,5.4
			c0,0.1,0,0.2,0.1,0.2c0,0,15.4,9,16.8,9.9c1.7,1.1,2,1.1,2,3.1c0,0.1,0,2.3,0,2.4c0,1.7-1.3,1.7-1.3,1.7v0.3h4.9v-0.3
			c0,0-1.3,0-1.3-1.7c0-0.1,0-2.2,0-2.4c0-1.9,0.3-2,2-3.1c1.4-0.9,16.8-9.9,16.8-9.9c0,0,0.1-0.1,0.1-0.2l-0.7-5.4H123.8z"/>
		<path d="M99.3,35.6c1.4,0,2-0.9,2.2-2C100.3,33.7,99.4,34.2,99.3,35.6"/>
		<path d="M103.1,34.6c-1.2,0.1-2.1,0.7-2.2,2C102.2,36.6,102.9,35.8,103.1,34.6"/>
		<path d="M111.4,30c1.1-0.9,1.1-1.9,0.5-3C111.1,27.8,110.7,28.8,111.4,30"/>
		<path d="M109.2,28.5c-0.9,0.8-1.3,1.8-0.5,3C109.7,30.6,109.7,29.5,109.2,28.5"/>
		<path d="M106.2,24.4c0.2,1.2,0.9,2,2.2,2C108.3,25,107.4,24.5,106.2,24.4"/>
		<path d="M114.2,33.5c-0.2-1.4-1.1-1.9-2.2-2C112.2,32.6,112.8,33.5,114.2,33.5"/>
		<path d="M111.4,35c-0.2-1.4-1.1-1.9-2.2-2C109.4,34.2,110,35,111.4,35"/>
		<path d="M119.3,46.3c-0.2-1.4-1.1-1.9-2.2-2C117.3,45.4,117.9,46.2,119.3,46.3"/>
		<path d="M116.1,47.8c-0.2-1.4-1.1-1.9-2.2-2.1C114,46.9,114.7,47.7,116.1,47.8"/>
		<path d="M112.3,42.2c0.2,1.2,0.9,2,2.2,2C114.4,42.9,113.5,42.3,112.3,42.2"/>
		<path d="M110.2,50.7c-0.2-1.4-1.1-1.9-2.2-2C108.2,49.9,108.8,50.7,110.2,50.7"/>
		<path d="M122.6,47.3c-0.2,1.4,0.6,2.1,1.8,2.5C124.5,48.5,124.1,47.6,122.6,47.3"/>
		<path d="M119.5,49.5c0.1,1.4,1,1.9,2.2,2.1C121.6,50.4,121,49.5,119.5,49.5"/>
		<path d="M114.8,54.1c1.3-0.5,1.6-1.6,1.3-2.7C115.1,51.8,114.4,52.7,114.8,54.1"/>
		<path d="M120.3,33c-0.1-1.4-1.1-1.9-2.2-2C118.3,32.1,118.9,33,120.3,33"/>
		<path d="M120.2,35.1c-0.1-1.4-1.1-1.9-2.2-2C118.2,34.2,118.8,35,120.2,35.1"/>
		<path d="M121.5,36.4c1.4,0,2-0.9,2.2-2C122.5,34.5,121.6,35,121.5,36.4"/>
		<path d="M123.4,31c-1.2,0.1-2.1,0.7-2.2,2C122.5,33,123.1,32.1,123.4,31"/>
	</g>
</g>
</svg>
