<?xml version="1.0" encoding="UTF-8" standalone="no"?>
<svg width="220px" height="102px" viewBox="0 0 220 102" version="1.1" xmlns="http://www.w3.org/2000/svg" xmlns:xlink="http://www.w3.org/1999/xlink">
    <!-- Generator: Sketch 47.1 (45422) - http://www.bohemiancoding.com/sketch -->
    <title>FS_Brand_Logo2</title>
    <desc>Created with Sketch.</desc>
    <defs></defs>
    <g id="Page-1" stroke="none" stroke-width="1" fill="none" fill-rule="evenodd">
        <g id="FS_Brand_Logo2" fill-rule="nonzero" fill="#FFFFFE">
            <g id="Group-25" transform="translate(0.000000, 82.229129)">
                <g id="Fill-24-Clipped">
                    <path d="M6.46546763,18.6359669 L0,18.6359669 L0,17.6768907 L1.86366906,17.6768907 L1.86366906,1.51016957 L0.150359712,1.51016957 L0.150359712,0.551883959 L11.6030216,0.551883959 C14.0333094,0.551883959 17.317482,0.601695835 17.3499281,0.600114506 L17.3578417,0.618299794 L18.0059712,6.24387912 L17.1505036,6.24387912 L17.0816547,6.00667971 C16.051295,2.51352307 15.3256115,1.51016957 11.6030216,1.51016957 L4.87165468,1.51016957 L4.87165468,9.40337525 L8.82690647,9.40337525 C12.1767626,9.40337525 13.1501439,9.09738801 13.1501439,6.93887339 L13.1501439,6.59177159 L14.002446,6.59177159 L14.002446,13.0649435 L13.1501439,13.0649435 L13.1501439,12.7225857 C13.1501439,11.1855335 12.2020863,10.3624515 8.82690647,10.3624515 L4.87165468,10.3624515 L4.87165468,17.6768907 L6.46546763,17.6768907 L6.46546763,18.6359669" id="Fill-24"></path>
                </g>
            </g>
            <path d="M28.8073381,86.5588085 C24.3297842,86.5588085 21.7625899,89.0826102 21.7625899,93.4858219 C21.7625899,97.8969402 24.2641007,100.326653 28.8073381,100.326653 C33.3632374,100.326653 35.8710791,97.8969402 35.8710791,93.4858219 C35.8710791,89.0826102 33.297554,86.5588085 28.8073381,86.5588085 M28.8073381,101.19164 C22.2611511,101.19164 18.7269065,97.2217126 18.7269065,93.4858219 C18.7269065,88.6058394 23.8533813,85.6914493 28.8073381,85.6914493 C35.3551079,85.6914493 38.8877698,89.7072353 38.8877698,93.4858219 C38.8877698,98.4907294 33.6948201,101.19164 28.8073381,101.19164" id="Fill-26"></path>
            <path d="M49.4002878,101.19164 C45.7188489,101.19164 41.3291367,99.8822993 41.3291367,93.6392108 L41.3291367,86.887725 L39.8144604,86.887725 L39.8144604,86.0195751 L45.7797842,86.0195751 L45.7797842,86.887725 L44.1289928,86.887725 L44.1289928,93.6392108 C44.1289928,99.4577124 47.4313669,100.326653 49.4002878,100.326653 C52.4858273,100.326653 55.7826619,98.5705866 55.7826619,93.6392108 L55.7826619,86.887725 L54.2885612,86.887725 L54.2885612,86.0195751 L57.9288489,86.0195751 L57.9288489,86.887725 L56.5542446,86.887725 L56.5542446,93.6392108 C56.5542446,99.2149783 52.7018705,101.19164 49.4002878,101.19164" id="Fill-27"></path>
            <path d="M63.5989928,93.4035928 L68.9478417,93.4035928 C71.5039568,93.4035928 72.6957554,92.3709847 72.6957554,90.1563328 C72.6957554,87.9258677 71.5102878,86.887725 68.9676259,86.887725 L63.5989928,86.887725 L63.5989928,93.4035928 Z M69.1029496,94.2693706 L63.5989928,94.2693706 L63.5989928,99.9977363 L64.9680576,99.9977363 L64.9680576,100.865096 L59.203741,100.865096 L59.203741,99.9977363 L60.9154676,99.9977363 L60.9154676,86.887725 L59.203741,86.887725 L59.203741,86.0195751 L68.9676259,86.0195751 C70.6413669,86.0195751 75.7314388,86.0195751 75.7314388,90.1563328 C75.7314388,92.0341615 74.6820863,93.325317 72.6870504,93.9048742 C72.6870504,93.9048742 71.5609353,94.2693706 69.1029496,94.2693706 L69.1029496,94.2693706 Z" id="Fill-28"></path>
            <path d="M104.886978,84.4904296 L105.285036,88.9007573 L104.481007,88.877828 L104.246763,88.1377659 C103.123022,84.8185555 100.80036,83.400103 97.1363309,83.400103 C93.5126619,83.400103 91.3506475,84.4287578 91.3506475,86.1492442 C91.3506475,88.0239102 94.3507194,88.7829483 97.5256835,89.5846823 C101.446906,90.5730131 105.886475,91.6949663 105.886475,95.4150438 C105.886475,99.3035327 102.899856,101.276241 97.0065468,101.276241 C97.0065468,101.276241 92.6682734,101.122852 89.3073381,99.852254 L88.3307914,94.6085658 L89.0715108,94.6085658 L89.3658993,95.4023931 C90.5695683,98.387943 93.5688489,100.317956 97.0065468,100.317956 C99.5468345,100.317956 103.806763,99.856998 103.806763,96.770243 C103.806763,94.5611259 100.630216,93.7910185 97.2676978,92.9750525 C93.3353957,92.0207202 89.2701439,91.0323893 89.2701439,87.5060248 C89.2701439,84.2864381 92.1364748,82.4433987 97.1363309,82.4433987 C98.6589209,82.4433987 99.5682014,82.6252516 101.023525,83.0332346 C101.023525,83.0332346 103.528201,83.7653901 104.886978,84.4904296" id="Fill-29"></path>
            <path d="M123.679568,100.987649 L123.606763,100.985277 C123.581439,100.983695 121.03482,100.865096 119.628561,100.865096 L108.539137,100.865096 L108.539137,99.9969457 L110.192302,99.9969457 L110.192302,86.887725 L108.539137,86.887725 L108.539137,86.0195751 L119.277194,86.0195751 C120.62964,86.0195751 122.027194,86.0195751 122.342158,85.9080914 L123.154892,85.810049 L123.639209,89.9752706 L122.987122,90.0108505 L122.919065,89.7981617 C122.032734,87.0450673 120.678705,86.887725 119.277194,86.887725 L112.873453,86.887725 L112.873453,92.7030638 L116.468633,92.7030638 C119.031871,92.7030638 119.885755,92.3662407 119.885755,90.5263639 L119.885755,90.2029821 L120.657338,90.2029821 L120.657338,95.9084185 L119.885755,95.9084185 L119.885755,95.5874087 C119.885755,94.2069081 119.054029,93.5696323 116.468633,93.5696323 L112.873453,93.5696323 L112.873453,99.9969457 L119.628561,99.9969457 C122.093669,99.9969457 122.668993,99.2228849 123.507842,97.2651991 L123.579065,97.060417 L124.383094,97.060417 L123.679568,100.987649" id="Fill-30"></path>
            <path d="M130.596906,95.1122192 L138.979856,95.1122192 L134.796691,87.54793 L130.596906,95.1122192 Z M140.156619,100.865096 L140.156619,99.9969457 L141.691079,99.9969457 L139.456259,95.977997 L130.099928,95.977997 L127.848489,99.9969457 L129.388489,99.9969457 L129.388489,100.865096 L125.626331,100.865096 L125.626331,99.9969457 L126.93446,99.9969457 L134.245899,86.8869343 L132.946475,86.8869343 L132.946475,86.0195751 L136.928633,86.0195751 L137.014892,86.1721734 L144.652374,99.9969457 L146.104532,99.9969457 L146.104532,100.859561 L140.156619,100.865096 L140.156619,100.865096 Z" id="Fill-31"></path>
            <path d="M174.094388,85.6914493 C169.138849,85.6914493 164.013957,88.60663 164.013957,93.4858219 C164.013957,97.2225032 167.548201,101.19164 174.094388,101.19164 C178.981079,101.19164 184.17482,98.4907294 184.17482,93.4858219 C184.17482,89.7072353 180.640576,85.6914493 174.094388,85.6914493 M174.094388,100.327444 C169.552734,100.327444 167.048058,97.8969402 167.048058,93.4858219 C167.048058,89.0826102 169.616835,86.5588085 174.094388,86.5588085 C178.583022,86.5588085 181.158129,89.0826102 181.158129,93.4858219 C181.158129,97.8969402 178.648705,100.327444 174.094388,100.327444" id="Fill-32"></path>
            <polyline id="Fill-33" points="185.42518 86.0187845 185.42518 86.887725 186.586906 86.887725 187.24295 87.5028621 187.24295 99.9977363 185.485324 99.9977363 185.485324 100.865096 189.591727 100.865096 189.591727 99.9977363 188.01295 99.9977363 188.01295 88.2207857 202.031223 101.433583 202.194245 101.586182 202.194245 86.887725 203.522158 86.887725 203.522158 86.0203658 199.801942 86.0203658 199.801942 86.887725 201.422662 86.887725 201.422662 97.1932487 189.630504 86.0448764 189.601223 86.0187845 185.42518 86.0187845"></polyline>
            <path d="M77.4676978,100.356698 C75.2091367,100.273678 74.9638129,99.4268764 74.4011511,98.3009699 L72.3483453,93.8479463 L69.3134532,93.8479463 L73.1048921,101.212988 L77.4764029,101.212988 L77.4676978,100.356698" id="Fill-34"></path>
            <path d="M161.046331,87.5589993 L161.371583,91.162849 L160.713957,91.1446637 L160.522446,90.5390146 C159.606043,87.8270346 157.707554,86.6687109 154.71223,86.6687109 C151.751727,86.6687109 149.984604,87.5083968 149.984604,88.9141986 C149.984604,90.4472975 152.43705,91.0663879 155.031942,91.7218489 C158.235396,92.5306989 161.863022,93.445498 161.863022,96.4863944 C161.863022,99.6656572 159.423237,101.276241 154.60777,101.276241 C154.60777,101.276241 151.062446,101.150525 148.31482,100.112383 L147.517122,95.8269801 L148.122518,95.8269801 L148.362302,96.4769064 C149.346763,98.916107 151.797626,100.492692 154.60777,100.492692 C156.681942,100.492692 160.163957,100.115545 160.163957,97.593325 C160.163957,95.7890282 157.568273,95.1588684 154.819856,94.492338 C151.606115,93.7127427 148.284748,92.9062647 148.284748,90.0235012 C148.284748,87.3937504 150.626403,85.8859528 154.71223,85.8859528 C155.95705,85.8859528 156.698561,86.0345978 157.888777,86.3682583 C157.888777,86.3682583 159.935252,86.9667915 161.046331,87.5589993" id="Fill-35"></path>
            <path d="M218.628561,87.5589993 L218.953813,91.162849 L218.296187,91.1446637 L218.104676,90.5390146 C217.188273,87.8270346 215.289784,86.6687109 212.29446,86.6687109 C209.333957,86.6687109 207.566835,87.5083968 207.566835,88.9141986 C207.566835,90.4472975 210.017698,91.0663879 212.61259,91.7218489 C215.817626,92.5306989 219.446043,93.445498 219.446043,96.4863944 C219.446043,99.6656572 217.003885,101.276241 212.188417,101.276241 C212.188417,101.276241 208.643885,101.150525 205.89705,100.112383 L205.099353,95.8269801 L205.704748,95.8269801 L205.944532,96.4769064 C206.928993,98.916107 209.379856,100.492692 212.188417,100.492692 C214.263381,100.492692 217.746187,100.115545 217.746187,97.593325 C217.746187,95.7890282 215.149712,95.1588684 212.402086,94.492338 C209.188345,93.7127427 205.866978,92.9062647 205.866978,90.0235012 C205.866978,87.3937504 208.208633,85.8859528 212.29446,85.8859528 C213.539281,85.8859528 214.281583,86.0345978 215.471007,86.3682583 C215.471007,86.3682583 217.517482,86.9667915 218.628561,87.5589993" id="Fill-36"></path>
            <path d="M133.281223,43.0635528 C132.015036,43.5838101 131.21259,44.5088878 131.522014,46.0846826 C133.043813,45.5747039 133.449784,44.4219147 133.281223,43.0635528" id="Fill-37"></path>
            <path d="M128.18482,43.9894211 C128.429353,45.3351324 129.162158,46.3163473 130.765468,46.3424393 C130.589784,44.7468779 129.547554,44.1072302 128.18482,43.9894211" id="Fill-38"></path>
            <path d="M130.759137,50.4594304 C130.691871,48.873357 129.63223,48.2337092 128.191942,48.1087842 C128.35259,49.4521235 129.061655,50.4270131 130.759137,50.4594304" id="Fill-39"></path>
            <path d="M126.120935,29.3289163 C124.75741,29.4490973 123.715971,30.0887451 123.540288,31.6819344 C125.141223,31.6582145 125.877986,30.6769996 126.120935,29.3289163" id="Fill-40"></path>
            <path d="M119.949856,28.1516166 C120.194388,29.5004905 120.929568,30.4801241 122.530504,30.5054254 C122.35482,28.914608 121.31259,28.2717976 119.949856,28.1516166" id="Fill-41"></path>
            <path d="M119.585827,23.2407981 C121.188345,23.2147062 121.919568,22.236654 122.166475,20.88778 C120.80295,21.005589 119.761511,21.6483994 119.585827,23.2407981" id="Fill-42"></path>
            <path d="M120.840144,17.3274169 C119.584245,17.8682315 118.79446,18.8043785 119.127626,20.3730573 C120.638345,19.8425213 121.029281,18.6810348 120.840144,17.3274169" id="Fill-43"></path>
            <path d="M116.333309,18.4715087 C116.380791,19.8338239 116.967194,20.9043839 118.541223,21.1558153 C118.595827,19.5642073 117.658058,18.7814492 116.333309,18.4715087" id="Fill-44"></path>
            <path d="M115.748489,14.6336222 C117.343885,14.608321 118.079065,13.6302687 118.32518,12.2877201 C116.962446,12.4047384 115.925755,13.0443862 115.748489,14.6336222" id="Fill-45"></path>
            <path d="M117.088273,9.05311079 C115.903597,9.71885047 115.218273,10.726948 115.713669,12.2466055 C117.152374,11.5674245 117.419065,10.3751022 117.088273,9.05311079" id="Fill-46"></path>
            <path d="M115.291871,13.3883253 C115.344892,11.7967173 114.408705,11.0139592 113.083957,10.7040187 C113.131439,12.066334 113.717842,13.136894 115.291871,13.3883253" id="Fill-47"></path>
            <path d="M114.421367,15.7002289 C114.248058,14.1141555 113.209784,13.4768798 111.851799,13.3566987 C112.098705,14.7000381 112.827554,15.674137 114.421367,15.7002289" id="Fill-48"></path>
            <path d="M110.156691,18.8312611 C110.617266,18.5395058 115.561727,15.648045 115.561727,15.648045 C115.573597,15.6409291 115.591799,15.6274878 115.591007,15.5879545 L115.363094,13.8374229 L115.286331,13.8374229 C115.286331,13.8374229 115.353597,14.5735317 115.333813,14.8684496 C115.311655,15.2052728 115.266547,15.3222912 115.011727,15.4891214 L109.533094,18.3117944 C109.541007,18.7363813 109.548129,19.1649216 109.556835,19.5997872 C109.630432,19.3507278 109.795036,19.0605539 110.156691,18.8312611" id="Fill-49"></path>
            <path d="M108.943525,3.22037731 C108.767842,1.6327226 107.728777,0.995446855 106.373957,0.878428479 C106.617698,2.21781448 107.348129,3.19349471 108.943525,3.22037731" id="Fill-50"></path>
            <path d="M108.904748,5.81612952 C108.730647,4.23163746 107.691583,3.59278039 106.33518,3.47576201 C106.580504,4.81593868 107.310935,5.79082825 108.904748,5.81612952" id="Fill-51"></path>
            <path d="M108.86518,8.39685909 C108.691079,6.81078571 107.652014,6.17430063 106.297194,6.05491026 C106.540935,7.39350559 107.271367,8.37313915 108.86518,8.39685909" id="Fill-52"></path>
            <path d="M108.826403,10.9878673 C108.650719,9.40495658 107.613237,8.76768084 106.256835,8.6474998 C106.502158,9.98925779 107.23259,10.9641474 108.826403,10.9878673" id="Fill-53"></path>
            <path d="M108.786835,13.5875728 C108.611942,12.0014994 107.573669,11.3642237 106.21964,11.2440427 C106.46259,12.5865913 107.193813,13.5591089 108.786835,13.5875728" id="Fill-54"></path>
            <path d="M108.74964,16.1706744 C108.573957,14.584601 107.534892,13.9473253 106.178489,13.8271442 C106.423022,15.1704836 107.154245,16.1437918 108.74964,16.1706744" id="Fill-55"></path>
            <path d="M105.304029,10.2651998 C104.004604,10.6874147 103.137266,11.5452859 103.32482,13.13215 C104.872734,12.7470963 105.369712,11.6290964 105.304029,10.2651998" id="Fill-56"></path>
            <path d="M103.373094,15.0368612 C104.967698,15.0099786 105.697338,14.0358797 105.941871,12.6933311 C104.586259,12.8135121 103.547986,13.4507878 103.373094,15.0368612" id="Fill-57"></path>
            <path d="M102.747914,13.4318119 C102.973453,11.8512732 102.125108,10.9712633 100.838345,10.5182125 C100.739424,11.8813184 101.206331,13.0103876 102.747914,13.4318119" id="Fill-58"></path>
            <path d="M102.41554,15.2226674 C102.240647,13.6334314 101.200791,12.9922023 99.841223,12.8736026 C100.087338,14.2193139 100.816978,15.1942035 102.41554,15.2226674" id="Fill-59"></path>
            <path d="M106.214892,22.498364 C104.853741,22.6169637 103.809928,23.2574021 103.634245,24.8529634 C105.236763,24.8268715 105.971942,23.8456566 106.214892,22.498364" id="Fill-60"></path>
            <path d="M101.740504,23.8749112 C103.343022,23.8511913 104.075827,22.8707671 104.321942,21.5218931 C102.960791,21.6420741 101.91777,22.2825125 101.740504,23.8749112" id="Fill-61"></path>
            <path d="M108.111799,23.4756255 C106.748273,23.5934346 105.705252,24.236245 105.529568,25.8286437 C107.130504,25.8025518 107.866475,24.8244995 108.111799,23.4756255" id="Fill-62"></path>
            <path d="M104.723165,20.8110855 C106.320144,20.7873656 107.05295,19.807732 107.298273,18.4643927 C105.938705,18.5837831 104.898058,19.2194775 104.723165,20.8110855" id="Fill-63"></path>
            <path d="M102.910935,19.7571295 C104.508705,19.7318282 105.241511,18.753776 105.487626,17.4112273 C104.126475,17.5282457 103.086619,18.1686841 102.910935,19.7571295" id="Fill-64"></path>
            <path d="M101.068633,18.6928948 C102.666403,18.6660122 103.397626,17.6911226 103.642158,16.34383 C102.284173,16.4624297 101.242734,17.1028681 101.068633,18.6928948" id="Fill-65"></path>
            <path d="M102.418705,20.5043076 C101.056763,20.6197447 100.012158,21.2625551 99.8380576,22.8557444 C101.438993,22.8280712 102.174173,21.8508096 102.418705,20.5043076" id="Fill-66"></path>
            <path d="M99.3632374,20.3564533 C99.5602878,18.7656359 98.6945324,17.9014394 97.3966906,17.4689458 C97.3223022,18.8336331 97.8097842,19.958749 99.3632374,20.3564533" id="Fill-67"></path>
            <path d="M98.8686331,22.7703526 C98.6921583,21.1771633 97.6483453,20.5375155 96.2864029,20.4173345 C96.5301439,21.7654178 97.2661151,22.7466327 98.8686331,22.7703526" id="Fill-68"></path>
            <path d="M100.22741,30.8794098 C98.8646763,30.9972188 97.8232374,31.6368666 97.647554,33.2300559 C99.2484892,33.2031733 99.9828777,32.2251211 100.22741,30.8794098" id="Fill-69"></path>
            <path d="M95.8084173,32.1832159 C97.4101439,32.1579146 98.1445324,31.178281 98.3890647,29.8301977 C97.0263309,29.9503788 95.9841007,30.5900265 95.8084173,32.1832159" id="Fill-70"></path>
            <path d="M102.116403,31.859834 C100.752878,31.980015 99.7114388,32.6196628 99.5357554,34.2128521 C101.136691,34.1851789 101.871871,33.2079173 102.116403,31.859834" id="Fill-71"></path>
            <path d="M104.011727,32.8378862 C102.651367,32.9580673 101.606763,33.597715 101.431079,35.1909044 C103.032014,35.1632311 103.766403,34.1859695 104.011727,32.8378862" id="Fill-72"></path>
            <path d="M105.903885,33.8135665 C104.541151,33.9337475 103.498921,34.5733952 103.322446,36.1665846 C104.924964,36.1389113 105.659353,35.1592778 105.903885,33.8135665" id="Fill-73"></path>
            <path d="M107.80554,34.7813401 C106.443597,34.9015211 105.399784,35.5443315 105.224892,37.1351489 C106.825827,37.1098476 107.560216,36.1317954 107.80554,34.7813401" id="Fill-74"></path>
            <path d="M105.091942,30.930803 C106.69446,30.9023391 107.430432,29.9258682 107.674173,28.5777848 C106.31223,28.6979659 105.269209,29.3376136 105.091942,30.930803" id="Fill-75"></path>
            <path d="M103.25518,29.8562897 C104.857698,29.8301977 105.590504,28.8521455 105.836619,27.5032715 C104.473885,27.6234526 103.431655,28.263891 103.25518,29.8562897" id="Fill-76"></path>
            <path d="M101.439784,28.784939 C103.040719,28.7588471 103.775899,27.7807948 104.020432,26.4350835 C102.658489,26.5521019 101.613885,27.1925403 101.439784,28.784939" id="Fill-77"></path>
            <path d="M99.6259712,27.714379 C101.226906,27.6890777 101.960504,26.7094442 102.206619,25.3613609 C100.843885,25.4815419 99.8000719,26.1211896 99.6259712,27.714379" id="Fill-78"></path>
            <path d="M97.8002878,26.6430283 C99.401223,26.6145644 100.135612,25.6380935 100.380935,24.2900102 C99.0189928,24.4070286 97.977554,25.0466763 97.8002878,26.6430283" id="Fill-79"></path>
            <path d="M98.3344604,27.433693 C96.9709353,27.5522927 95.9294964,28.1935218 95.7522302,29.7867112 C97.3531655,29.7598286 98.087554,28.7817763 98.3344604,27.433693" id="Fill-80"></path>
            <path d="M95.4404317,28.4670918 C95.8305755,26.9134357 95.0756115,25.9496154 93.8402878,25.3613609 C93.6020863,26.7094442 93.9479137,27.8859532 95.4404317,28.4670918" id="Fill-81"></path>
            <path d="M95.0099281,30.5291453 C94.8342446,28.9375373 93.791223,28.2963082 92.4292806,28.1761272 C92.6746043,29.5242105 93.4089928,30.503844 95.0099281,30.5291453" id="Fill-82"></path>
            <path d="M94.6569784,32.8829541 C94.4828777,31.2866021 93.4382734,30.6469544 92.0763309,30.5291453 C92.3208633,31.8748566 93.0544604,32.8544902 94.6569784,32.8829541" id="Fill-83"></path>
            <path d="M99.1115827,39.4344018 C100.712518,39.4059379 101.447698,38.429467 101.69223,37.080593 C100.331079,37.198402 99.2872662,37.8412124 99.1115827,39.4344018" id="Fill-84"></path>
            <path d="M99.1115827,43.1157366 C100.712518,43.0880634 101.447698,42.1115925 101.69223,40.7627185 C100.331079,40.8805275 99.2888489,41.5233379 99.1115827,43.1157366" id="Fill-85"></path>
            <path d="M97.3033094,38.3725391 C98.9058273,38.3464472 99.6417986,37.3652323 99.8855396,36.017149 C98.5235971,36.1365394 97.4805755,36.7793498 97.3033094,38.3725391" id="Fill-86"></path>
            <path d="M95.5029496,37.3043511 C97.1054676,37.2766778 97.8382734,36.2970443 98.0851799,34.951333 C96.7200719,35.0683513 95.6786331,35.7087898 95.5029496,37.3043511" id="Fill-87"></path>
            <path d="M93.6891367,36.2472324 C95.2916547,36.2211405 96.0252518,35.2399256 96.2697842,33.8942143 C94.9078417,34.0120233 93.8648201,34.6516711 93.6891367,36.2472324" id="Fill-88"></path>
            <path d="M131.110504,46.2823488 C131.110504,46.2823488 131.351871,48.9215875 131.283813,49.9810782 C131.203094,51.1836792 131.044029,51.6058942 130.128417,52.2012647 L110.318921,62.4071646 L110.318921,62.4055833 C110.285683,60.4621294 110.246115,58.2387803 110.203381,55.8185557 L110.205755,55.1804893 C110.182014,53.8513819 110.545252,53.1374117 112.115324,52.1427555 C113.476475,51.278559 128.100144,42.7259389 128.100144,42.7259389 C128.133381,42.7061723 128.187986,42.6674298 128.18482,42.5496207 L127.509784,37.368395 L127.285036,37.368395 C127.285036,37.368395 127.48446,39.5498389 127.425899,40.4227327 C127.361799,41.4165982 127.228849,41.766072 126.473885,42.2562841 L110.112374,50.6847698 C110.068058,48.1767814 110.021367,45.5383333 109.973094,42.841376 L109.958849,42.1092205 C109.985755,41.2711159 110.284101,40.7706251 111.343741,40.1001415 C112.360647,39.4549591 123.284676,33.064807 123.284676,33.064807 C123.31,33.050575 123.351151,33.0197391 123.347194,32.9335567 L122.843094,29.0640436 L122.676115,29.0640436 C122.676115,29.0640436 122.824892,30.6920222 122.782158,31.3443206 C122.733094,32.0867548 122.634173,32.3476741 122.069928,32.7137519 L109.904245,38.9821416 C109.84964,35.9499425 109.795827,32.8861168 109.741223,29.8800096 L109.741223,29.8784283 C109.825108,29.4514693 110.070432,28.898004 110.739137,28.4742078 C111.466403,28.0132502 119.285899,23.4384643 119.285899,23.4384643 C119.303309,23.4289763 119.333381,23.4060471 119.330216,23.3451659 L118.970144,20.5738861 L118.849856,20.5738861 C118.849856,20.5738861 118.955899,21.7409072 118.925827,22.2073994 C118.890216,22.738726 118.820576,22.9245323 118.416187,23.1870329 L109.701655,27.6795897 L109.701655,27.6780084 C109.650216,24.8861714 109.602734,22.1678661 109.556835,19.5997872 C109.548129,19.1665029 109.541799,18.7363813 109.533094,18.3117944 C109.352662,8.30276999 109.218921,0.868940503 109.218921,0.868940503 C109.218921,0.821500621 109.184101,0.783548716 109.135036,0.783548716 C109.089137,0.783548716 109.054317,0.821500621 109.054317,0.868940503 C109.054317,0.868940503 108.924532,8.29407268 108.750432,18.2951904 C108.747266,18.4944379 108.743309,18.6984294 108.738561,18.9016303 C108.743309,18.6984294 108.745683,18.4944379 108.750432,18.2951904 L103.302662,15.4891214 C103.048633,15.3215005 103.003525,15.2036915 102.981367,14.8684496 C102.961583,14.572741 103.027266,13.8358415 103.027266,13.8358415 L102.952086,13.8358415 L102.724173,15.5871639 C102.723381,15.6274878 102.742374,15.6417197 102.753453,15.648045 C102.753453,15.648045 107.697914,18.5395058 108.158489,18.8312611 C108.478201,19.0336713 108.642806,19.284312 108.727482,19.5104421 L108.727482,19.5120234 L108.729065,19.5136047 C108.684748,22.102241 108.637266,24.8458475 108.586619,27.6637765 L99.8989928,23.1886143 C99.4930216,22.9253229 99.424964,22.7395167 99.3901439,22.2073994 C99.3592806,21.7409072 99.4653237,20.5754674 99.4653237,20.5754674 L99.345036,20.5754674 L98.9833813,23.3451659 C98.9810072,23.4076284 99.0118705,23.4289763 99.0300719,23.4400456 C99.0300719,23.4400456 106.848777,28.0132502 107.576043,28.4742078 C108.189353,28.8616335 108.445755,29.3589616 108.550216,29.7685259 L108.550216,29.7708979 C108.497194,32.8117943 108.443381,35.9135719 108.39036,38.9821416 L96.2230935,32.7153332 C95.6588489,32.3476741 95.5599281,32.0875454 95.5108633,31.3459019 C95.4689209,30.6936036 95.6169065,29.0640436 95.6169065,29.0640436 L95.4483453,29.0640436 L94.9458273,32.9343473 C94.9410791,33.0213204 94.9830216,33.050575 95.0083453,33.0663883 C95.0083453,33.0663883 105.930791,39.4549591 106.949281,40.1001415 C108.039784,40.7903918 108.324676,41.3019518 108.334173,42.1890776 L108.321511,42.9702543 L108.321511,42.968673 C108.275612,45.6197717 108.230504,48.2099893 108.18777,50.6776538 L91.8428777,42.2562841 C91.0879137,41.766072 90.9533813,41.4165982 90.8892806,40.4227327 C90.8323022,39.5498389 91.0301439,37.3699763 91.0301439,37.3699763 L90.8046043,37.3699763 L90.1303597,42.5496207 C90.1271942,42.6658484 90.1802158,42.7061723 90.215036,42.7259389 C90.215036,42.7259389 104.838705,51.2801403 106.201439,52.1435462 C107.771511,53.1374117 108.131583,53.8513819 108.111007,55.1804893 L108.111007,55.1915586 C108.065108,57.8545173 108.023165,60.2913459 107.986763,62.40163 L88.1859712,52.2012647 C87.2719424,51.6058942 87.111295,51.1836792 87.0329496,49.9810782 C86.9633094,48.9231688 87.2046763,46.2823488 87.2046763,46.2823488 L86.9308633,46.2823488 L86.1157554,52.5562731 C86.1086331,52.6970115 86.1758993,52.7460327 86.216259,52.7697526 C86.216259,52.7697526 103.927842,63.1298321 105.576259,64.1750909 C107.500863,65.3942958 107.888633,65.4796876 107.888633,67.7117341 C107.888633,67.8145205 107.851439,70.3984127 107.851439,70.4932925 C107.851439,72.4383276 106.311439,72.4905115 106.311439,72.4905115 L106.316187,72.8731932 L111.991079,72.8731932 L111.995036,72.4905115 C111.995036,72.4905115 110.455827,72.4383276 110.455827,70.4932925 C110.455827,70.3984127 110.424964,67.9070282 110.424964,67.7117341 C110.424964,65.4796876 110.812734,65.3935052 112.738129,64.1750909 C114.387338,63.1282508 132.100504,52.7697526 132.100504,52.7697526 C132.140863,52.7460327 132.206547,52.6970115 132.201007,52.5562731 L131.382734,46.2823488 L131.110504,46.2823488" id="Fill-89"></path>
            <path d="M102.842878,41.6585416 C104.444604,41.631659 105.178993,40.6536068 105.425108,39.3055235 C104.060791,39.4225418 103.016978,40.0653522 102.842878,41.6585416" id="Fill-90"></path>
            <path d="M107.227842,40.4820325 C105.864317,40.5990509 104.822086,41.2418613 104.647194,42.8350507 C106.248129,42.8081681 106.982518,41.8301158 107.227842,40.4820325" id="Fill-91"></path>
            <path d="M116.866691,35.1561151 C118.121799,34.1582963 118.107554,32.932766 117.477626,31.715933 C116.470216,32.6433827 116.035755,33.7866839 116.866691,35.1561151" id="Fill-92"></path>
            <path d="M114.271799,33.4142808 C113.26518,34.3425212 112.829928,35.4850316 113.661655,36.8544629 C114.916763,35.8566441 114.902518,34.6311138 114.271799,33.4142808" id="Fill-93"></path>
            <path d="M110.868921,28.6797806 C111.114245,30.0286546 111.84705,31.0051255 113.451151,31.0335894 C113.273885,29.4404 112.230863,28.7999616 110.868921,28.6797806" id="Fill-94"></path>
            <path d="M120.070144,39.231201 C119.892878,37.6380116 118.851439,36.9975732 117.490288,36.8773922 C117.73482,38.2262662 118.467626,39.2027371 120.070144,39.231201" id="Fill-95"></path>
            <path d="M116.835827,40.9769886 C116.658561,39.3837993 115.617122,38.7441515 114.256763,38.6239705 C114.502086,39.9720538 115.234892,40.9493154 116.835827,40.9769886" id="Fill-96"></path>
            <path d="M125.901727,53.9193791 C125.725252,52.323027 124.679065,51.6802166 123.316331,51.5600356 C123.560863,52.9112816 124.295252,53.8940778 125.901727,53.9193791" id="Fill-97"></path>
            <path d="M122.191799,55.6319588 C122.016115,54.0363974 120.969137,53.3935871 119.606403,53.273406 C119.849353,54.624652 120.585324,55.6066575 122.191799,55.6319588" id="Fill-98"></path>
            <path d="M117.886763,49.2821306 C118.132878,50.6317953 118.866475,51.6098475 120.46741,51.6351488 C120.291727,50.0451221 119.249496,49.4023117 117.886763,49.2821306" id="Fill-99"></path>
            <path d="M115.446978,59.0697689 C115.271295,57.4742076 114.224317,56.8313972 112.862374,56.7112161 C113.106115,58.0624621 113.840504,59.0452583 115.446978,59.0697689" id="Fill-100"></path>
            <path d="M129.72482,55.0666336 C129.467626,56.6345216 130.375324,57.4765796 131.75705,57.8900972 C131.87259,56.5435952 131.381151,55.4437806 129.72482,55.0666336" id="Fill-101"></path>
            <path d="M126.17,57.6418285 C126.238058,59.2405525 127.305612,59.8849442 128.751439,60.0090786 C128.593957,58.6578326 127.880935,57.6742457 126.17,57.6418285" id="Fill-102"></path>
            <path d="M120.737266,62.8926327 C122.228993,62.2735423 122.551871,61.0835919 122.28518,59.7331366 C121.053813,60.3482737 120.313885,61.3334419 120.737266,62.8926327" id="Fill-103"></path>
            <path d="M127.091151,38.6453184 C126.914676,37.0537104 125.872446,36.4124813 124.509712,36.2923003 C124.755827,37.6403836 125.490216,38.6200172 127.091151,38.6453184" id="Fill-104"></path>
            <path d="M126.985899,40.9983366 C126.811799,39.4027752 125.767986,38.7631275 124.405252,38.6453184 C124.649784,39.9910298 125.383381,40.9706633 126.985899,40.9983366" id="Fill-105"></path>
            <path d="M128.391367,42.574922 C129.992302,42.5480394 130.725108,41.5699872 130.972806,40.2211132 C129.608489,40.3389222 128.566259,40.97857 128.391367,42.574922" id="Fill-106"></path>
            <path d="M130.582662,36.2915096 C129.217554,36.4093187 128.175324,37.0489664 128.000432,38.6453184 C129.600576,38.6168545 130.335755,37.6403836 130.582662,36.2915096" id="Fill-107"></path>
        </g>
    </g>
</svg>